# xmcd CD database file
#
# Track frame offsets:
#	150
#	27011
#	49382
#	64238
#	88914
#	103929
#	125824
#	145961
#	160879
#	186131
#	211041
#
# Disc length: 3073 seconds
#
# Revision: 0
# Processed by: cddbd v1.4PL0 Copyright (c) Steve Scherf et al.
# Submitted via: CDex 1.40Release
#
DISCID=a30bff0b
DTITLE=Barry Levenson featuing Johnny Dyer - Hard Times Won
DYEAR=2003
DGENRE=Blues
TTITLE0=Hard Times Won
TTITLE1=Chasing The Monay
TTITLE2=Things You Do
TTITLE3=Inhumanity Blues
TTITLE4=She's So Fine
TTITLE5=I Ain't Going Back
TTITLE6=The Graveyard Shift
TTITLE7=9 O'Clock Blues
TTITLE8=Blues for Never Slim
TTITLE9=Drinking Stops Me Thinking
TTITLE10=Slip Me Some Green, Jack
EXTD=YEAR: 2003 ID3G: 0
EXTT0=
EXTT1=
EXTT2=
EXTT3=
EXTT4=
EXTT5=
EXTT6=
EXTT7=
EXTT8=
EXTT9=
EXTT10=
PLAYORDER=
